<svg xmlns="http://www.w3.org/2000/svg" viewBox="0 0 64 64">
  <path fill="#dc322f" d="M47.2 9.9c0 1.5-7.6 4-15.6 6.5-8 2.5-15.6 5-15.6 6.5v2.6c0 1.5 7.6 4 15.6 6.5 8 2.5 15.6 5 15.6 6.5v-2.9c0-1.5-7.6-4-15.6-6.5-8-2.5-15.6-5-15.6-6.5V22c0-1.5 7.6-4 15.6-6.5C39.6 13 47.2 10.5 47.2 9"/>
  <path fill="#dc322f" d="M47.2 22.8v-2.9c0-1.5-7.6-4-15.6-6.5-8-2.5-15.6-5-15.6-6.5v2.6c0 1.5 7.6 4 15.6 6.5 8 2.5 15.6 5 15.6 6.5"/>
  <path fill="#b81b1e" d="M31.6 16.4c-8-2.5-15.6-5-15.6-6.5v2.6c0 1.5 7.6 4 15.6 6.5 8 2.5 15.6 5 15.6 6.5v-2.9c0-1.5-7.6-4-15.6-6.5"/>
</svg>
