<svg xmlns="http://www.w3.org/2000/svg" viewBox="0 0 64 64">
  <polygon fill="#D6BA32" points="16.4,58 12.4,6 51.6,6 47.6,58 32,62"/>
  <polygon fill="#FFDA3E" points="32,56.5 46.2,50.4 49.5,10 32,10"/>
  <path fill="#b81b1e" d="M32 21.2v11.6c4.8.3 9.3 1.6 9.2 4.1l.4-9.4c0-2.2-.1-5.1-9.6-6.3"/>
  <path fill="#8a0000" d="M32 34.4v11.5c4.3-.2 8.3-1 8.3-1.4l.3-9.3c0-2-8-1.9-8.6-.8"/>
  <path fill="#e04040" d="M44.2 15.2c-.1 2.6-5.4 4.9-11 6.6l.1 12.3c6.5-3.7 6.7-5.6 6.7-5.6l.4-12.2"/>
  <path fill="#e04040" d="M43.4 28.3c-.1 2.3-5.1 4.9-10.3 7l.1 10.8c9.7-4.6 9.8-7.2 9.8-7.2l.4-10.6"/>
  <path fill="#a00000" d="M32.1 20.8c-5.5.8-10.6 1-10.6 1l.5 11.2c4 .1 7.3 0 10.1-.3V20.8z"/>
  <path fill="#a00000" d="M32.1 34.4c-5.2.3-10 .1-10 .1l.4 9.9c3.8.5 7 .7 9.6.7V34.4z"/>
</svg>
